<svg fill="#ffffff" xmlns="http://www.w3.org/2000/svg" xmlns:xlink="http://www.w3.org/1999/xlink" version="1.1" x="0px" y="0px" viewBox="0 0 512 640" enable-background="new 0 0 512 512" xml:space="preserve"><g><path d="M458.61,345.438c-2.495-1.443-5.225-2.412-8.035-2.888V170.358c2.805-0.471,5.53-1.427,8.037-2.859   c11.441-6.632,15.364-21.355,8.743-32.823c-4.274-7.385-12.236-11.973-20.778-11.973c-4.198,0-8.353,1.118-11.993,3.227   c-2.512,1.44-4.68,3.304-6.479,5.469l-74.549-43.036l-74.592-43.04c0.979-2.613,1.519-5.439,1.519-8.39   c0-13.231-10.768-23.995-24-23.995c-13.25,0-24.031,10.764-24.031,23.995c0,2.956,0.541,5.787,1.524,8.404L84.826,131.4   c-1.796-2.164-3.96-4.025-6.464-5.461c-3.656-2.117-7.808-3.235-12.007-3.235c-8.534,0-16.505,4.584-20.82,11.993   c-6.555,11.479-2.612,26.197,8.81,32.815c2.49,1.423,5.21,2.377,8.015,2.847v172.192c-2.813,0.477-5.541,1.443-8.035,2.887   c-11.404,6.607-15.347,21.318-8.773,32.82c4.295,7.385,12.268,11.973,20.807,11.973c4.196,0,8.346-1.117,11.989-3.223   c2.515-1.441,4.686-3.309,6.485-5.479l74.573,43.046l74.57,43.014c-0.983,2.617-1.524,5.447-1.524,8.402   c0,13.238,10.78,24.008,24.031,24.008c13.232,0,24-10.77,24-24.008c0-2.95-0.537-5.776-1.517-8.391l74.592-43.026l74.542-43.043   c1.8,2.166,3.967,4.031,6.476,5.47c3.656,2.112,7.807,3.229,12.002,3.229c8.546,0,16.509-4.592,20.781-11.981   C473.979,366.791,470.058,352.072,458.61,345.438z M430.899,143.585c0.001-0.004,0.002-0.008,0.003-0.012   c0.101-0.521,0.233-1.031,0.388-1.54c0.073-0.241,0.146-0.482,0.229-0.718c0.061-0.168,0.121-0.335,0.188-0.502   c1.319-3.351,3.702-6.135,6.869-7.951c2.439-1.412,5.208-2.159,8.001-2.159c5.696,0,11.005,3.058,13.853,7.978   c4.419,7.65,1.806,17.473-5.808,21.884c-2.446,1.398-5.215,2.137-8.006,2.137c-5.716,0-11.039-3.07-13.899-8.014c0,0,0,0-0.001,0   c-0.003-0.007-0.007-0.014-0.011-0.021c-0.207-0.359-0.388-0.728-0.564-1.098c-0.106-0.229-0.214-0.46-0.311-0.694   c-0.032-0.077-0.063-0.155-0.092-0.233C430.595,149.756,430.313,146.603,430.899,143.585z M273.178,54.146   c0.247-0.24,0.489-0.486,0.727-0.736c0.08-0.085,0.162-0.168,0.242-0.254c0.146-0.157,0.285-0.319,0.427-0.48   c0.126-0.144,0.258-0.283,0.381-0.431l74.604,43.046l74.534,43.028c-0.202,0.55-0.377,1.108-0.537,1.67   c-0.047,0.159-0.107,0.311-0.15,0.472c-1.317,4.895-1.063,9.955,0.678,14.597l-83.043,47.983   c-17.081-26.939-46.68-45.193-80.555-46.532v-95.92c4.854-0.818,9.219-3.099,12.623-6.373   C273.129,54.193,273.154,54.17,273.178,54.146z M348.524,256.433c0,50.768-41.29,92.072-92.042,92.072   c-50.751,0-92.041-41.304-92.041-92.072c0-50.735,41.29-92.011,92.041-92.011C307.234,164.422,348.524,205.698,348.524,256.433z    M256.482,20.938c8.823,0,16,7.175,16,15.995c0,8.226-6.244,15.016-14.242,15.894c-0.09,0.01-0.18,0.019-0.27,0.026   c-0.49,0.046-0.986,0.076-1.491,0.076c-0.488,0-0.969-0.03-1.446-0.073c-0.124-0.011-0.248-0.023-0.371-0.037   c-0.455-0.051-0.906-0.117-1.348-0.206c-0.1-0.021-0.198-0.048-0.297-0.07c-0.35-0.077-0.694-0.167-1.035-0.266   c-0.159-0.046-0.317-0.093-0.474-0.145c-0.401-0.131-0.797-0.272-1.183-0.433c-0.11-0.046-0.217-0.1-0.327-0.148   c-0.319-0.141-0.633-0.292-0.94-0.453c-0.122-0.063-0.244-0.127-0.364-0.194c-0.394-0.219-0.78-0.449-1.152-0.699   c-0.028-0.019-0.054-0.04-0.082-0.058c-0.371-0.253-0.729-0.522-1.077-0.804c-0.055-0.045-0.111-0.089-0.166-0.135   c-0.733-0.611-1.409-1.286-2.022-2.016c-0.052-0.063-0.104-0.125-0.156-0.188c-0.278-0.341-0.542-0.692-0.792-1.056   c-0.039-0.057-0.077-0.113-0.115-0.171c-1.693-2.535-2.685-5.575-2.685-8.844C240.451,28.113,247.643,20.938,256.482,20.938z    M237.994,52.254c0.452,0.544,0.933,1.06,1.428,1.559c0.037,0.037,0.072,0.074,0.108,0.11c0.225,0.223,0.454,0.44,0.687,0.653   c0.071,0.065,0.142,0.13,0.213,0.195c0.212,0.19,0.428,0.377,0.646,0.559c0.107,0.089,0.215,0.177,0.324,0.265   c0.194,0.156,0.388,0.313,0.586,0.46c0.16,0.121,0.324,0.238,0.488,0.356c0.155,0.111,0.31,0.225,0.468,0.333   c0.286,0.196,0.578,0.384,0.873,0.568c0.042,0.026,0.083,0.055,0.126,0.081c1.833,1.125,3.83,2.005,5.943,2.609   c0.019,0.005,0.037,0.011,0.056,0.016c0.389,0.11,0.781,0.21,1.177,0.3c0.042,0.01,0.084,0.02,0.126,0.029   c0.368,0.082,0.739,0.155,1.113,0.22c0.042,0.007,0.083,0.018,0.125,0.025v95.916c-33.876,1.339-63.474,19.593-80.555,46.533   l-83.074-47.985c1.381-3.688,1.821-7.638,1.284-11.561c-0.008-0.063-0.018-0.125-0.027-0.188c-0.044-0.306-0.094-0.611-0.15-0.916   c-0.032-0.177-0.065-0.354-0.102-0.529c-0.037-0.178-0.076-0.354-0.117-0.532c-0.061-0.268-0.125-0.536-0.195-0.802   c-0.006-0.022-0.01-0.044-0.016-0.067c-0.005-0.019-0.013-0.037-0.018-0.056c-0.19-0.703-0.405-1.403-0.66-2.092L237.994,52.254z    M58.336,160.577c-7.609-4.408-10.235-14.239-5.871-21.884c2.87-4.928,8.192-7.99,13.89-7.99c2.793,0,5.559,0.747,8.013,2.167   c3.686,2.113,6.326,5.547,7.436,9.67c0.128,0.476,0.228,0.954,0.312,1.432c0.016,0.092,0.031,0.185,0.045,0.277   c0.063,0.396,0.107,0.792,0.139,1.189c0.016,0.208,0.026,0.417,0.034,0.625c0.011,0.265,0.017,0.53,0.014,0.795   c-0.002,0.249-0.01,0.499-0.024,0.748c-0.009,0.154-0.024,0.308-0.037,0.461c-0.041,0.467-0.101,0.933-0.182,1.396   c-0.026,0.147-0.05,0.295-0.08,0.441c-0.052,0.254-0.11,0.506-0.174,0.758c-0.058,0.226-0.125,0.451-0.193,0.674   c-0.083,0.272-0.171,0.542-0.269,0.811c-0.112,0.305-0.229,0.608-0.36,0.908c-0.06,0.137-0.121,0.274-0.185,0.41   c-0.195,0.415-0.4,0.827-0.633,1.229c-0.001,0.002-0.002,0.004-0.004,0.006c-1.127,1.947-2.638,3.599-4.397,4.892   c-2.708,1.981-6.02,3.11-9.485,3.11C63.531,162.702,60.761,161.963,58.336,160.577z M81.803,370.398   c-0.137,0.511-0.299,1.011-0.482,1.498c-0.003,0.01-0.006,0.019-0.01,0.025c-1.299,3.441-3.723,6.301-6.955,8.151   c-2.44,1.409-5.206,2.153-7.998,2.153c-5.701,0-11.023-3.063-13.877-7.967c-4.382-7.669-1.756-17.494,5.853-21.902   c2.432-1.405,5.189-2.15,7.974-2.153c0.018,0,0.034,0.005,0.052,0.005c1.061,0,2.107,0.105,3.127,0.313   c4.389,0.891,8.272,3.604,10.606,7.533c0.041,0.067,0.086,0.135,0.126,0.203c0.251,0.436,0.478,0.881,0.685,1.33   c0.024,0.053,0.047,0.104,0.07,0.155c0.408,0.909,0.727,1.85,0.955,2.809c0.012,0.054,0.025,0.105,0.037,0.158   c0.219,0.962,0.347,1.94,0.382,2.929c0.001,0.049,0.003,0.096,0.004,0.144C82.394,367.318,82.214,368.87,81.803,370.398z    M84.822,350.902c-0.132-0.159-0.271-0.313-0.406-0.467c-0.025-0.029-0.05-0.061-0.076-0.088   c-3.096-3.516-7.162-6.047-11.664-7.281c-0.096-0.025-0.193-0.049-0.29-0.073c-0.366-0.097-0.735-0.185-1.107-0.263   c-0.163-0.035-0.326-0.065-0.489-0.099c-0.144-0.026-0.286-0.063-0.431-0.086V170.375c2.298-0.393,4.51-1.125,6.578-2.146   c0.045-0.022,0.09-0.046,0.136-0.069c0.379-0.19,0.753-0.39,1.123-0.6c0.11-0.063,0.22-0.126,0.329-0.191   c0.298-0.176,0.591-0.359,0.881-0.547c0.141-0.091,0.283-0.182,0.422-0.276c0.25-0.17,0.495-0.348,0.739-0.527   c0.157-0.116,0.317-0.227,0.472-0.347c0.21-0.163,0.413-0.335,0.618-0.505c0.374-0.309,0.738-0.63,1.094-0.962   c0.118-0.11,0.239-0.218,0.354-0.331c0.22-0.213,0.431-0.435,0.643-0.657c0.116-0.122,0.232-0.243,0.345-0.367   c0.204-0.224,0.403-0.452,0.599-0.684c0.052-0.062,0.108-0.12,0.159-0.182l83.067,47.981   c-7.323,13.893-11.477,29.703-11.477,46.468c0,16.784,4.158,32.612,11.489,46.518L84.822,350.902z M239.569,458.969   c-0.078,0.077-0.154,0.156-0.23,0.234c-0.21,0.214-0.419,0.429-0.623,0.651c-0.033,0.035-0.064,0.072-0.098,0.109   c-0.211,0.231-0.422,0.465-0.624,0.707l-74.591-43.024l-74.548-43.03c0.54-1.448,0.926-2.938,1.177-4.443   c0.004-0.022,0.008-0.047,0.011-0.069c0.058-0.351,0.108-0.701,0.149-1.054c0.01-0.077,0.017-0.155,0.026-0.233   c0.033-0.308,0.063-0.613,0.085-0.924c0.01-0.135,0.015-0.27,0.022-0.403c0.014-0.263,0.028-0.521,0.034-0.781   c0.004-0.207,0.001-0.414,0-0.621c-0.001-0.194,0.002-0.394-0.004-0.588c-0.012-0.409-0.033-0.817-0.066-1.228   c-0.003-0.032-0.008-0.065-0.011-0.102c-0.032-0.378-0.073-0.756-0.124-1.132c-0.021-0.154-0.048-0.308-0.072-0.461   c-0.039-0.25-0.077-0.499-0.123-0.747c-0.038-0.201-0.082-0.4-0.125-0.602c-0.042-0.192-0.083-0.388-0.129-0.58   c-0.056-0.232-0.118-0.465-0.181-0.697c-0.041-0.15-0.083-0.301-0.126-0.45c-0.077-0.261-0.158-0.521-0.244-0.78   c-0.037-0.111-0.076-0.222-0.114-0.332c-0.066-0.188-0.127-0.381-0.198-0.567l83.096-47.943   c17.083,26.946,46.676,45.203,80.544,46.543v95.915c-0.029,0.005-0.058,0.013-0.087,0.019c-0.395,0.066-0.787,0.146-1.176,0.231   c-0.021,0.005-0.043,0.01-0.064,0.015c-3,0.684-5.789,1.922-8.249,3.608c-0.104,0.071-0.206,0.146-0.309,0.22   c-0.22,0.156-0.438,0.313-0.652,0.479c-0.158,0.119-0.313,0.243-0.467,0.365c-0.152,0.122-0.302,0.243-0.451,0.367   c-0.183,0.154-0.364,0.313-0.542,0.472c-0.111,0.099-0.22,0.198-0.33,0.301C239.957,458.593,239.76,458.778,239.569,458.969z    M256.482,491.999c-8.839,0-16.031-7.181-16.031-16.008c0-3.255,0.985-6.282,2.665-8.813c0.05-0.076,0.101-0.149,0.153-0.227   c0.241-0.352,0.495-0.688,0.762-1.019c0.06-0.071,0.12-0.146,0.181-0.219c0.605-0.718,1.271-1.382,1.991-1.982   c0.069-0.06,0.14-0.114,0.21-0.173c0.325-0.263,0.659-0.513,1.004-0.75c0.049-0.031,0.096-0.068,0.145-0.103   c0.361-0.242,0.735-0.465,1.116-0.678c0.136-0.075,0.272-0.147,0.41-0.221c0.285-0.146,0.575-0.285,0.87-0.419   c0.132-0.059,0.262-0.123,0.396-0.178c0.373-0.155,0.755-0.292,1.142-0.418c0.168-0.056,0.338-0.104,0.508-0.155   c0.323-0.094,0.65-0.179,0.981-0.253c0.114-0.023,0.227-0.057,0.341-0.08c0.437-0.087,0.88-0.149,1.329-0.202   c0.131-0.016,0.262-0.026,0.393-0.038c0.473-0.042,0.95-0.072,1.434-0.072c0.502,0,1,0.03,1.493,0.075   c0.088,0.009,0.174,0.017,0.262,0.024c8,0.876,14.246,7.667,14.246,15.895C272.48,484.817,265.303,491.999,256.482,491.999z    M349.559,417.646l-74.586,43.022c-3.685-4.469-8.787-7.407-14.49-8.348v-95.904c33.867-1.34,63.461-19.597,80.544-46.539   l83.046,47.996c-0.048,0.132-0.089,0.269-0.137,0.399c-0.075,0.217-0.147,0.435-0.22,0.65c-0.025,0.088-0.056,0.176-0.082,0.264   c-1.324,4.274-1.425,8.851-0.229,13.287c0.04,0.146,0.097,0.285,0.139,0.433c0.163,0.565,0.339,1.13,0.543,1.686   c0.002,0.007,0.003,0.011,0.005,0.017L349.559,417.646z M428.048,350.934l-83.016-47.979c7.332-13.907,11.491-29.736,11.491-46.522   c0-16.766-4.154-32.577-11.479-46.47l83.028-47.975c3.661,4.436,8.826,7.424,14.501,8.389v172.169   c-0.184,0.031-0.361,0.072-0.542,0.106c-0.084,0.019-0.171,0.035-0.257,0.053C436.409,343.805,431.545,346.707,428.048,350.934z    M460.431,374.244c-2.848,4.926-8.155,7.984-13.854,7.984c-2.793,0-5.561-0.746-8.012-2.162c-2.726-1.563-4.872-3.85-6.26-6.6   c-0.023-0.051-0.055-0.1-0.079-0.148c-0.188-0.389-0.356-0.789-0.518-1.193c-0.064-0.163-0.124-0.328-0.183-0.494   c-0.101-0.273-0.188-0.555-0.271-0.836c-0.094-0.32-0.178-0.643-0.252-0.967c-0.046-0.198-0.092-0.396-0.13-0.598   c-0.056-0.293-0.104-0.588-0.146-0.885c-0.007-0.055-0.012-0.105-0.019-0.16c-0.193-1.584-0.149-3.19,0.124-4.767   c0.027-0.149,0.051-0.304,0.083-0.455c0.041-0.202,0.09-0.405,0.139-0.608c0.358-1.42,0.905-2.803,1.658-4.104   c2.51-4.342,6.898-7.244,11.775-7.903c0.686-0.092,1.382-0.139,2.083-0.139c0.019,0,0.034-0.005,0.054-0.006   c2.783,0.003,5.541,0.748,7.973,2.154C462.233,356.783,464.849,366.602,460.431,374.244z"/><path d="M214.667,259.3l19.377-19.35c1.562-1.562,1.564-4.095,0.003-5.658s-4.093-1.565-5.657-0.004l-22.212,22.181   c-0.751,0.75-1.173,1.77-1.173,2.831s0.422,2.08,1.174,2.83l22.212,22.181c0.781,0.779,1.803,1.17,2.826,1.17   c1.024,0,2.049-0.393,2.831-1.174c1.561-1.563,1.559-4.097-0.004-5.656L214.667,259.3z"/><path d="M284.574,234.288c-1.563-1.561-4.096-1.559-5.656,0.004c-1.563,1.563-1.561,4.096,0.004,5.657l19.377,19.35l-19.377,19.35   c-1.563,1.563-1.564,4.095-0.004,5.656c0.781,0.782,1.807,1.174,2.83,1.174c1.021,0,2.046-0.39,2.826-1.17l22.212-22.18   c0.752-0.75,1.174-1.77,1.174-2.83c0-1.06-0.422-2.08-1.174-2.831L284.574,234.288z"/><path d="M273.555,215.208c-2.055-0.808-4.378,0.203-5.188,2.259l-29.501,75.006c-0.809,2.057,0.203,4.379,2.259,5.188   c0.48,0.188,0.976,0.276,1.463,0.276c1.596,0,3.104-0.961,3.724-2.537l29.5-75.004   C276.621,218.339,275.609,216.017,273.555,215.208z"/></g></svg>