<svg fill="#ffffff" xmlns="http://www.w3.org/2000/svg" xmlns:xlink="http://www.w3.org/1999/xlink" version="1.1" x="0px" y="0px" viewBox="0 0 96.001 120" enable-background="new 0 0 96.001 96" xml:space="preserve"><path d="M89.443,23.979c0-2.821-2.297-5.117-5.119-5.117H63.076v-5.742c0-1.792-1.458-3.25-3.25-3.25H36.174  c-1.792,0-3.25,1.458-3.25,3.25v5.742H10.428c-2.821,0-5.117,2.296-5.117,5.117v50.051H0.845v6.051c0,3.336,3.275,6.051,7.302,6.051  h79.707c4.026,0,7.303-2.715,7.303-6.051v-6.051h-5.713V23.979z M34.424,13.119c0-0.965,0.785-1.75,1.75-1.75h23.652  c0.965,0,1.75,0.785,1.75,1.75v50.953c0,0.965-0.785,1.75-1.75,1.75H49.011c0.754-0.375,1.278-1.146,1.278-2.043  c0-0.934-0.564-1.736-1.368-2.092h10.761V12.584H36.318v49.104h10.761c-0.804,0.355-1.368,1.158-1.368,2.092  c0,0.897,0.524,1.668,1.278,2.043H36.174c-0.965,0-1.75-0.785-1.75-1.75V13.119z M48,62.99c0.436,0,0.789,0.354,0.789,0.789  S48.436,64.568,48,64.568s-0.789-0.354-0.789-0.789S47.564,62.99,48,62.99z M37.818,60.188V14.084h20.363v46.104H37.818z   M93.656,75.529v4.551c0,2.51-2.604,4.551-5.803,4.551H8.146c-3.199,0-5.802-2.041-5.802-4.551v-4.551h2.966h84.133H93.656z   M6.811,74.029V23.979c0-1.994,1.623-3.617,3.617-3.617h22.496v43.711c0,1.792,1.458,3.25,3.25,3.25h23.652  c1.792,0,3.25-1.458,3.25-3.25V20.361h21.248c1.995,0,3.619,1.623,3.619,3.617v50.051H6.811z"/><rect x="40.357" y="79.33" width="15.287" height="1.5"/></svg>